<?xml version="1.0" encoding="utf-8"?>
<!-- Generator: Adobe Illustrator 23.0.1, SVG Export Plug-In . SVG Version: 6.00 Build 0)  -->
<svg version="1.1" id="圖層_1" xmlns="http://www.w3.org/2000/svg" xmlns:xlink="http://www.w3.org/1999/xlink" x="0px" y="0px"
	 viewBox="0 0 110 31.6" style="enable-background:new 0 0 110 31.6;" xml:space="preserve">
<style type="text/css">
	.st0{fill:#3E3A39;}
	.st1{fill:none;}
	.st2{fill:#D71629;}
</style>
<g>
	<polygon class="st0" points="84.8,0.4 84.8,6.3 92.8,6.3 92.8,0.4 96.7,0.4 96.7,15.3 92.8,15.3 92.8,8.7 84.8,8.7 84.8,15.3 
		80.8,15.3 80.8,0.4 	"/>
	<polygon class="st0" points="47.4,0.4 47.4,2.9 41.3,2.9 41.3,15.3 37.4,15.3 37.4,2.9 31.4,2.9 31.4,0.4 	"/>
	<path class="st0" d="M53.3,2.9l-2.7,6.8h5.5L53.3,2.9z M62.7,15.3h-4.4L57,12.1h-7.4l-1.3,3.2h-4.4l7-14.9h4.8L62.7,15.3z"/>
	<rect x="99.8" y="0.4" class="st0" width="3.9" height="14.9"/>
	<polygon class="st0" points="11,0.4 11,6.3 18.9,6.3 18.9,0.4 22.9,0.4 22.9,15.3 18.9,15.3 18.9,8.7 11,8.7 11,15.3 7,15.3 7,0.4 
			"/>
	<rect x="26" y="0.4" class="st0" width="3.9" height="14.9"/>
	<path class="st0" d="M62.6,11.1C62.2,10.1,62,9.1,62,8c0-1.6,0.3-3.1,1-4.3c0.8-1.3,2-2.3,3.4-2.8C67.8,0.3,69.3,0,70.8,0
		c1.8,0,3.4,0.4,5,1c1.4,0.6,2.5,1.9,2.8,3.4c0.1,0.3,0.1,0.6,0.1,0.9h-4.1c0-0.4-0.1-0.8-0.2-1.1c-0.3-0.8-1-1.5-1.8-1.7
		c-0.5-0.2-1.1-0.3-1.7-0.3c-0.7,0-1.3,0.1-2,0.3c-1,0.4-1.8,1.2-2.1,2.2c-0.3,1-0.5,2-0.5,3.1c0,0.9,0.1,1.8,0.4,2.6
		c0.3,1.1,1.1,2,2.2,2.4c0.7,0.2,1.4,0.4,2.1,0.4c0.6,0,1.2-0.1,1.8-0.3c0.8-0.2,1.4-0.8,1.7-1.5c0.2-0.5,0.3-1,0.3-1.6h4.2
		c0,0.5-0.1,1-0.2,1.4c-0.4,1.5-1.4,2.7-2.8,3.3c-1.6,0.7-3.3,1-5.1,1c-1.4,0-2.7-0.2-4-0.6C64.9,14.4,63.2,13,62.6,11.1"/>
	<path class="st0" d="M3.6,19.4l-0.1,0L0,19.7v0.5l0.1,0c1.4,0.2,1.4,0.2,1.4,1.2v7.4h2.1"/>
	<line class="st1" x1="3.6" y1="28.8" x2="3.6" y2="19.4"/>
	<path class="st0" d="M11,22.2c-1.3,0-2.1,0.9-2.5,1.4v-1.4l-3,0.5v0.5l0.1,0c0.9,0,1.1,0.2,1.1,1.1v4.6h1.8v-3.4
		c0-0.9,0.9-2.1,1.8-2.1c0.8,0,0.9,0.7,0.9,1.9v3.6h1.8v-4.6C12.9,22.9,12.2,22.2,11,22.2"/>
	<path class="st0" d="M17.9,24.8c-0.7-0.3-1.3-0.6-1.3-1.1c0-0.5,0.7-0.6,0.9-0.6c0.7,0,1.4,0.4,1.7,0.6l0.3,0.2v-1.3l-0.2-0.1
		c-0.3-0.1-0.9-0.2-1.6-0.2c-1.7,0-2.7,0.7-2.7,1.9c0,1.1,1,1.6,2,2c0.7,0.4,1.4,0.7,1.4,1.2c0,0.5-0.4,0.8-1.2,0.8
		c-0.8,0-1.5-0.4-2-0.7L15,27.3v1.4l0.1,0c0.4,0.1,1,0.2,1.9,0.2c1.8,0,2.9-0.7,2.9-2C19.9,25.8,18.9,25.2,17.9,24.8"/>
	<path class="st0" d="M25.2,23.2c1.2,0,1.4,1.3,1.4,2.3c0,1.7-0.4,2.5-1.3,2.5c-1.2,0-1.4-1.1-1.4-2v-0.6
		C23.8,24.8,24,23.2,25.2,23.2 M25.7,22.2c-0.7,0-1.3,0.3-1.9,0.9v-0.9l-0.2,0l-2.8,0.4v0.5l0.1,0c0.9,0,1.1,0.2,1.1,1.1v7.3h1.8
		v-3.3c0.3,0.4,0.8,0.8,1.8,0.8c1.9,0,2.8-1.2,2.8-3.5C28.5,23.4,27.5,22.2,25.7,22.2"/>
	<path class="st0" d="M30.9,24.2v4.6h1.8v-6.6l-0.1,0l-2.8,0.4v0.5l0.1,0C30.7,23.2,30.9,23.4,30.9,24.2"/>
	<path class="st0" d="M31.8,21.4c0.6,0,1.1-0.4,1.1-1c0-0.5-0.5-1-1.1-1c-0.6,0-1.1,0.4-1.1,1C30.7,21,31.2,21.4,31.8,21.4"/>
	<path class="st0" d="M40.1,23.7v-1.4l-0.1,0c-0.3-0.1-0.6-0.1-0.8-0.1c-1,0-1.5,0.7-1.8,1.3v-1.3l-0.2,0l-2.8,0.4v0.5l0.1,0
		c0.9,0,1.1,0.2,1.1,1.1v4.6h1.8v-3.3c0-0.6,0.2-1.9,1.9-1.9c0.2,0,0.4,0.1,0.6,0.1l0.3,0.1L40.1,23.7L40.1,23.7z"/>
	<path class="st0" d="M44.1,22.9c1,0,1.2,0.7,1.2,1.3h-2.6C42.9,23.8,43.1,22.9,44.1,22.9 M47.1,24.9c0-1.8-1-2.7-2.9-2.7
		c-2.2,0-3.3,1.1-3.3,3.2c0,2.3,1.4,3.6,3.9,3.6c1.1,0,1.9-0.3,2.2-0.4l0.1,0v-0.9l-0.2,0.1C46.6,27.9,46,28,45.4,28
		c-1.9,0-2.6-1.6-2.6-3h4.3V24.9z"/>
	<path class="st0" d="M63.3,22.2c-1.3,0-2.1,0.8-2.4,1.4v-4.4l-0.1,0l-2.8,0.3v0.5l0.1,0c0.9,0,1.1,0.2,1.1,1.1v7.7h1.8v-3.3
		c0-1.2,0.9-2.1,1.7-2.1c1,0,1,0.7,1,1.4v4.1h1.8v-4.3C65.3,23.9,65.3,22.2,63.3,22.2"/>
	<path class="st0" d="M70.3,22.9c0.9,0,1.2,0.7,1.2,1.3H69C69,23.8,69.3,22.9,70.3,22.9 M73.3,24.9c0-1.8-1-2.7-2.9-2.7
		c-2.2,0-3.3,1.1-3.3,3.2c0,2.3,1.4,3.6,3.9,3.6c1.1,0,1.9-0.3,2.2-0.4l0.1,0v-0.9L73,27.8c-0.3,0.1-0.8,0.2-1.4,0.2
		c-1.9,0-2.6-1.6-2.6-3h4.3L73.3,24.9L73.3,24.9z"/>
	<path class="st0" d="M53.4,20.3v2h-1.2v0.8h1.2v4c0,1.7,1.1,1.8,2.4,1.8c0.3,0,0.7,0,1-0.1l0.1,0V28l-0.2,0c-0.2,0-0.3,0.1-0.5,0.1
		c-1.1,0-1.1-0.3-1.1-1.2v-3.8h2v-0.8h-2v-2H53.4z"/>
	<path class="st0" d="M88.3,19.6h-1.8v7c-0.4-0.6-4.6-7-4.6-7h-4.1v0.5l0.4,0.1c1.1,0.2,1.2,0.2,1.2,1.2v7.4h1.9v-7.4
		c0.4,0.6,4.9,7.4,4.9,7.4h2.4v-9.3H88.3z"/>
	<path class="st0" d="M93.4,22.9c1,0,1.2,0.7,1.2,1.3h-2.6C92.1,23.8,92.4,22.9,93.4,22.9 M96.4,24.9c0-1.8-1-2.7-2.9-2.7
		c-2.2,0-3.3,1.1-3.3,3.2c0,2.2,1.4,3.6,3.9,3.6c1.1,0,1.9-0.3,2.2-0.4l0.1,0v-0.9l-0.2,0.1c-0.3,0.1-0.8,0.2-1.4,0.2
		c-1.9,0-2.6-1.6-2.6-3h4.3V24.9z"/>
	<path class="st0" d="M106.2,20.3v2H105v0.8h1.2v4c0,1.7,1.1,1.8,2.4,1.8c0.3,0,0.7,0,1-0.1l0.1,0V28l-0.2,0c-0.2,0-0.3,0.1-0.5,0.1
		c-1.1,0-1.1-0.3-1.1-1.2v-3.8h2v-0.8h-2v-2H106.2z"/>
	<path class="st0" d="M102.6,24.5l1.8-2.1h-1.9l-1.7,2l-1.5-2h-2.7v0.5l0.1,0c0.9,0.1,1.1,0.2,1.7,1l1.1,1.5l-1.8,2.1h1.9l0.8-0.9
		l1.7,2.3h2.1l-3.3-4.4L102.6,24.5L102.6,24.5z"/>
	<polygon class="st2" points="106.2,20.3 104.3,20.3 106.6,17.7 108.5,17.7 	"/>
	<rect x="0" class="st1" width="110" height="31.6"/>
</g>
</svg>
